<?xml version="1.0" encoding="UTF-8"?><svg id="Layer_1" xmlns="http://www.w3.org/2000/svg" viewBox="0 0 357.43 246.64"><defs><style>.cls-1{fill:#c49a6d;}</style></defs><path class="cls-1" d="M153.37,17.99h0c-1.98-.83-3.95-1.59-5.86-2.42C110.44,.93,70.12-3.5,30.76,2.76V199.83c5.66-.83,11.27-1.47,16.94-1.91,1.72-.13,3.44-.13,5.22-.19,3.89-.26,7.77-.45,11.72-.45,.32,0,.7-.06,1.08-.06,4.27,0,8.6,.19,12.87,.38,1.15,.06,2.29,.19,3.44,.26,3.76,.26,7.52,.64,11.21,1.08,1.53,.19,2.99,.38,4.52,.57,3.89,.51,7.83,1.15,11.72,1.91,.89,.19,1.78,.32,2.68,.45,4.65,.95,9.3,2.1,13.95,3.31,1.27,.38,2.55,.76,3.82,1.08,3.57,1.02,7.07,2.1,10.57,3.31,1.34,.44,2.68,.89,4.08,1.34,4.59,1.66,9.11,3.38,13.63,5.35l14.33,6.12V26.27s-19.17-8.28-19.17-8.28ZM58.41,57.79c29.98-.43,59.83,4.11,88.34,13.44h0s0,0,0,0c3.21,1.09,4.96,4.54,3.95,7.77-.82,2.55-3.19,4.27-5.86,4.27-.65,.02-1.3-.09-1.91-.32-27.19-8.91-55.66-13.26-84.27-12.87-3.38,0-6.17-2.67-6.31-6.05-.04-3.39,2.66-6.18,6.05-6.24Zm92.29,95.15c-.82,2.55-3.19,4.27-5.86,4.27-.65,.01-1.29-.08-1.91-.26-27.19-8.93-55.66-13.3-84.27-12.92-3.4,.07-6.2-2.62-6.27-6.02-.03-1.63,.58-3.21,1.71-4.39,1.13-1.18,2.68-1.86,4.31-1.89,29.98-.43,59.83,4.11,88.34,13.44h0c3.2,1.09,4.95,4.53,3.95,7.77Zm0-36.94c-.82,2.55-3.19,4.27-5.86,4.27-.65-.01-1.29-.12-1.91-.32-27.17-8.97-55.66-13.32-84.27-12.87-3.39,.02-6.19-2.66-6.31-6.05-.07-3.41,2.64-6.23,6.05-6.31,29.99-.37,59.83,4.19,88.34,13.5h0c3.22,1.08,4.98,4.54,3.95,7.77Z"/><path class="cls-1" d="M298.77,.15c-30.34-.96-60.55,4.29-88.79,15.41-1.97,.83-3.95,1.59-5.86,2.42l-19.24,8.28V222.37l14.33-6.12h0c40.13-17.21,84.27-22.9,127.45-16.43V2.76c-9.23-1.51-18.55-2.38-27.9-2.61Zm0,143.88c-28.61-.36-57.08,4-84.27,12.92h0c-.62,.18-1.26,.27-1.91,.26-2.68,0-5.04-1.72-5.86-4.27-1.01-3.23,.74-6.68,3.95-7.77,28.5-9.32,58.35-13.86,88.34-13.44,3.39,.06,6.09,2.85,6.05,6.24-.12,3.39-2.91,6.07-6.31,6.05Zm0-36.95c-28.61-.42-57.09,3.93-84.27,12.87-.62,.2-1.26,.31-1.91,.32-2.68,0-5.04-1.72-5.86-4.27h0c-1.02-3.23,.73-6.69,3.95-7.76,28.51-9.31,58.35-13.87,88.34-13.5,3.41,.07,6.12,2.89,6.05,6.3-.17,3.37-2.93,6.02-6.31,6.04Zm0-37c-28.61-.35-57.07,3.99-84.27,12.87-.61,.23-1.26,.34-1.91,.32-2.68,0-5.04-1.72-5.86-4.27h0c-1.01-3.23,.74-6.68,3.95-7.77,28.49-9.35,58.35-13.89,88.34-13.44,3.39,.07,6.09,2.85,6.05,6.24-.16,3.37-2.93,6.03-6.31,6.05Z"/><path class="cls-1" d="M140.88,222.75c-2.17-.76-4.4-1.52-6.63-2.23h0c-2.74-.89-5.54-1.78-8.34-2.54-2.29-.64-4.52-1.27-6.82-1.78-2.8-.7-5.6-1.34-8.41-1.91-2.29-.51-4.65-.95-6.94-1.34-2.86-.51-5.73-.95-8.53-1.34-2.36-.26-4.65-.57-6.94-.83-2.93-.32-5.86-.51-8.79-.7-2.29-.13-4.52-.32-6.82-.38-3.06-.06-6.11-.06-9.23,0-2.1,0-4.27,0-6.43,.06-3.38,.13-6.82,.45-10.19,.7-.39,.04-.77,.06-1.15,.09-10.35,.95-27.19,5.34-27.19,5.34V16.01H0V246.64c39.05-17.72,81.75-25.86,124.58-23.76l19.11,.95c-.89-.32-1.85-.76-2.8-1.08Z"/><path class="cls-1" d="M338.96,16.01V207.08c0,.27-.02,.53-.06,.79v8.02s-18.15-4.74-28.34-5.44c-.24-.02-.44-.04-.65-.06-3.15-.24-6.34-.53-9.49-.64-2.17-.06-4.33-.06-6.49-.06-3.06,0-6.11-.06-9.17,0-2.23,.13-4.52,.26-6.82,.45-2.93,.12-5.86,.32-8.73,.64-2.36,.26-4.65,.57-7.01,.89-2.8,.38-5.67,.76-8.53,1.27-2.29,.39-4.65,.83-6.94,1.34-2.8,.57-5.6,1.21-8.34,1.85-2.36,.57-4.65,1.21-6.88,1.85-2.81,.76-5.54,1.65-8.28,2.55-2.3,.7-4.52,1.47-6.75,2.23-.96,.38-1.85,.76-2.74,1.08l19.11-.95c4.46-.19,8.98-.32,13.44-.32,38.34,0,76.24,8.21,111.14,24.08V16.01h-18.47Z"/></svg>