<?xml version="1.0" encoding="UTF-8"?><svg id="Layer_1" xmlns="http://www.w3.org/2000/svg" viewBox="0 0 234.62 234.91"><defs><style>.cls-1{fill:#c49a6d;fill-rule:evenodd;}</style></defs><path class="cls-1" d="M190.74,.12H43.88C19.63,.12-.03,19.78-.03,44.02V190.88c0,24.25,19.66,43.91,43.91,43.91H190.74c24.25,0,43.91-19.66,43.91-43.91V44.02C234.64,19.78,214.99,.12,190.74,.12ZM12.09,37.13H115.59v24.96c0,5.26,.72,10.42,2.69,15.24,.73,1.8,2.38,5.31,3.27,7.02,4.55,8.75,12.52,15.14,21.45,18.87,.34,.13,.67,.26,.98,.41,5.08,1.98,10.57,3.06,16.22,3.06h14.57c-5.21-9.04-13.28-16.19-22.99-20.21-.63-.28-1.3-.52-1.95-.77-.37-.15-.73-.28-1.11-.39-.73-.26-1.48-.49-2.23-.7-.33-.1-.65-.19-.98-.26-1.19-.33-2.39-.59-3.63-.8-.39-.08-.78-.15-1.17-.19-.39-.06-.8-.13-1.19-.16-.39-.07-.8-.1-1.21-.15-1.58-.16-3.19-.24-4.82-.24h-.05c-.51,0-1,.02-1.5,.03-.5,0-1.03,.03-1.53,.07-.51,.03-4.28-7.21-4.28-7.21,1.48-.2,2.96-.34,4.48-.41,.42-.03,.86-.03,1.3-.07,.13-.02,.26-.02,.39,0,.19-.02,.39-.03,.59-.02,.21-.02,.41-.02,.6-.02,.46,0,.9,0,1.34,.03,.03-.02,.05-.02,.07,0,.46,.02,.94,.03,1.4,.05,1.42,.07,2.81,.2,4.19,.38,1.04,.13,2.06,.31,3.08,.49,.23,.05,.47,.08,.7,.13,.46,.1,.9,.19,1.34,.29h.03c.44,.1,.88,.21,1.32,.33,.36,.08,.69,.16,1.03,.26,.28,.08,.54,.15,.8,.23,.54,.15,1.06,.31,1.58,.47,.02,0,.05,.02,.05,.02,.39,.13,.78,.26,1.17,.41,.54,.18,1.06,.38,1.6,.59,.33,.13,.64,.24,.95,.38,.31,.11,.62,.24,.93,.39,.44,.18,.88,.38,1.3,.57,.63,.28,1.27,.57,1.89,.9,.02,0,.03,.02,.07,.03,.42,.21,.85,.42,1.27,.65,.5,.28,1.01,.55,1.5,.83,.25,.15,.47,.31,.72,.44,.37,.23,.73,.44,1.09,.67,.47,.28,.93,.59,1.39,.9,.2,.15,.41,.28,.6,.42,.84,.59,1.68,1.19,2.49,1.83,.16,.11,.31,.24,.47,.36,.46,.37,.91,.75,1.37,1.14,.44,.38,.9,.77,1.34,1.17,.18,.16,.33,.29,.49,.44,.34,.33,.68,.65,1.01,.98,.02,0,.03,.02,.05,.05,.08,.06,.15,.15,.23,.21,.19,.19,.39,.39,.59,.6,.59,.59,1.14,1.17,1.7,1.79,.15,.16,.29,.33,.44,.5,.68,.76,1.32,1.54,1.95,2.34,.15,.19,.29,.38,.44,.55,.71,.94,1.41,1.92,2.08,2.93,.02,.02,.05,.07,.07,.1,.06,.1,.13,.21,.19,.33,.23,.33,.43,.64,.62,.96,.05,.06,.1,.13,.13,.19,.16,.26,.31,.52,.47,.78,.47,.78,.91,1.58,1.35,2.38,.06,.15,.13,.29,.21,.44,.1,.15,.18,.33,.26,.49,.18,.36,.38,.72,.55,1.09,.15,.29,.26,.62,.41,.91l.19,.44c.18,.41,.36,.81,.54,1.22v.03c.38,.88,.72,1.77,1.06,2.68,.08,.23,.15,.46,.23,.69,.02,.05,.03,.07,.03,.1h0c.18,.53,.39,1.03,.54,1.51h-26.15c-1.19,0-2.36-.03-3.55-.13-.31-.02-.64-.03-.95-.07h-.02c-10.8-.95-20.89-5.23-29-12.02-5-4.19-9.25-9.31-12.43-15.21v-.02c-.59-1.08-1.13-2.15-1.63-3.27-.55-1.19-1.04-2.41-1.5-3.65v-.02c-2.08-5.7-3.13-11.68-3.13-17.83v-17.38H15.46c-1.22-2.49-2.34-5.03-3.37-7.59Zm18.64,31.75h55.33c.26,2.57,.65,5.11,1.22,7.6H37.33c-2.31-2.45-4.52-4.99-6.6-7.6Zm15.92,16.59h43.27c.33,.89,.67,1.77,1.05,2.65,.38,.93,.79,1.85,1.23,2.77,.3,.64,.62,1.27,.93,1.89,.05,.1,.09,.19,.14,.29H56.31c-3.34-2.37-6.56-4.92-9.66-7.6Zm86.85,100.43c-3.53,0-6.97-.34-10.31-1-.55-.1-1.12-.21-1.68-.34-.2-.05-.41-.08-.62-.15-.46-.1-.93-.21-1.39-.34h-.03c-1.24-.31-2.42-.69-3.63-1.08-.62-.21-1.22-.44-1.84-.67-.62-.23-1.22-.47-1.83-.72-.62-.26-1.24-.54-1.84-.81-.75-.33-1.47-.69-2.18-1.08h-29.86l4.77-26.47,2.91-16.17h7.23l-2.59,14.39-2.05,11.33-1.76,9.81h24.15c.36,.21,.72,.39,1.09,.57,.5,.26,1,.5,1.48,.72,1,.47,2,.9,3.04,1.29,.52,.19,1.03,.38,1.57,.55,2.39,.83,4.89,1.47,7.44,1.89,2.57,.44,5.21,.67,7.91,.67,.57,0,1.16-.02,1.74-.03,19.03-.7,35.25-12.59,42.25-29.3,1.55-3.71,2.65-7.67,3.22-11.81,.29-2.13,.46-4.32,.46-6.54,0-.36,0-.69-.02-1.04v-.08h-19.79v.33c0,15.66-12.74,28.4-28.4,28.4s-28.42-12.73-28.42-28.4v-.33c.03-2.64,.42-5.18,1.14-7.59,1.32-4.61,3.79-8.71,7.07-12.03-4.37-4.33-8.16-9.25-11.24-14.69-.41-.69-.8-1.4-1.17-2.11-.36-.72-.72-1.45-1.08-2.16-.44-.93-.85-1.84-1.22-2.78-.38-.88-.73-1.76-1.06-2.65-1.09-2.93-1.97-5.92-2.62-8.99-.57-2.49-.96-5.03-1.22-7.59-.23-2.24-.34-4.51-.34-6.77v-1.6H24.56c-1.68-2.47-3.29-5.02-4.77-7.6H100.43v9.2c0,7.41,1.34,14.59,3.99,21.41,.52,1.39,1.11,2.75,1.74,4.09,.46,1,.96,1.94,1.47,2.86,2.99,5.52,6.79,10.47,11.22,14.7,2.44,2.36,5.08,4.48,7.88,6.37-2.65,.91-5.06,2.39-7.05,4.3-1.81,1.71-3.27,3.76-4.3,6.06-1.06,2.31-1.66,4.89-1.7,7.59-.02,.12-.02,.21-.02,.33,0,10.65,8.66,19.31,19.31,19.31s19.29-8.66,19.29-19.31c0-.11,0-.21-.02-.33-.03-3.03-.8-5.9-2.1-8.44,3.04,.5,6.14,.8,9.27,.83,.28,.02,.54,.02,.81,.02h27.9c.18,1.19,.33,2.38,.41,3.58,.02,.11,.03,.23,.05,.33,.02,.33,.05,.64,.06,.95,.03,.52,.07,1.06,.08,1.6v.12c.02,.33,.03,.69,.03,1.03v.08c0,.35,0,.67,0,1.03h0c0,30.48-24.8,55.28-55.28,55.28Z"/></svg>