<svg width="100" height="103" viewBox="0 0 100 103" fill="none" xmlns="http://www.w3.org/2000/svg">
<g filter="url(#filter0_d_28_10983)">
<path d="M95 49C95 24.1472 74.8528 4 50 4C25.1472 4 5 24.1472 5 49C5 73.8528 25.1472 94 50 94C74.8528 94 95 73.8528 95 49Z" stroke="url(#paint0_linear_28_10983)" stroke-width="1.26" stroke-miterlimit="10"/>
</g>
<g filter="url(#filter1_d_28_10983)">
<path d="M95 49C95 24.1472 74.8528 4 50 4C25.1472 4 5 24.1472 5 49C5 73.8528 25.1472 94 50 94C74.8528 94 95 73.8528 95 49Z" fill="url(#paint1_linear_28_10983)"/>
<path d="M95 49C95 24.1472 74.8528 4 50 4C25.1472 4 5 24.1472 5 49C5 73.8528 25.1472 94 50 94C74.8528 94 95 73.8528 95 49Z" stroke="url(#paint2_linear_28_10983)" stroke-width="1.5" stroke-miterlimit="10"/>
</g>
<path d="M77.34 55.27C77.34 64.82 69.57 72.58 60.03 72.58C58.92 72.58 57.85 72.47 56.8 72.27C56.63 72.24 56.45 72.2 56.27 72.16C56.21 72.14 56.14 72.13 56.08 72.11C55.94 72.08 55.79 72.04 55.65 72H55.64C55.25 71.9 54.88 71.79 54.5 71.66C54.31 71.59 54.12 71.52 53.92 71.45C53.72 71.38 53.54 71.3 53.35 71.23C53.16 71.15 52.96 71.06 52.77 70.97C52.54 70.87 52.31 70.76 52.09 70.63H42.74L44.23 62.34L45.14 57.28H47.4L46.59 61.79L45.95 65.34L45.4 68.41H52.96C53.07 68.48 53.18 68.53 53.3 68.59C53.46 68.67 53.61 68.75 53.76 68.81C54.07 68.96 54.39 69.09 54.71 69.21C54.87 69.27 55.03 69.33 55.2 69.38C55.95 69.64 56.73 69.84 57.53 69.97C58.34 70.11 59.16 70.18 60.01 70.18C60.19 70.18 60.37 70.18 60.56 70.17C66.52 69.95 71.6 66.23 73.79 61C74.28 59.84 74.62 58.6 74.8 57.3C74.89 56.63 74.94 55.95 74.94 55.25C74.94 55.14 74.94 55.04 74.94 54.92V54.89H68.74V54.99C68.74 59.9 64.75 63.88 59.85 63.88C54.95 63.88 50.95 59.89 50.95 54.99V54.89C50.96 54.06 51.08 53.27 51.31 52.51C51.72 51.07 52.5 49.78 53.52 48.74C52.15 47.38 50.97 45.84 50 44.14C49.87 43.93 49.75 43.7 49.63 43.48C49.52 43.26 49.41 43.03 49.29 42.8C49.15 42.51 49.02 42.22 48.91 41.93C48.79 41.65 48.68 41.38 48.58 41.1C48.24 40.18 47.96 39.24 47.76 38.28C47.58 37.5 47.46 36.7 47.38 35.9C47.31 35.2 47.27 34.49 47.27 33.78V33.28H25.91C25.38 32.51 24.88 31.71 24.42 30.9H49.67V33.78C49.67 36.1 50.09 38.35 50.92 40.49C51.08 40.92 51.27 41.35 51.47 41.77C51.61 42.08 51.77 42.38 51.93 42.67C52.87 44.4 54.06 45.95 55.44 47.27C56.2 48.01 57.03 48.67 57.91 49.26C57.08 49.55 56.32 50.01 55.7 50.61C55.13 51.15 54.68 51.79 54.35 52.51C54.02 53.23 53.83 54.04 53.82 54.89C53.82 54.93 53.82 54.96 53.82 54.99C53.82 58.32 56.53 61.04 59.87 61.04C63.21 61.04 65.91 58.33 65.91 54.99C65.91 54.95 65.91 54.92 65.91 54.89C65.9 53.94 65.66 53.04 65.25 52.25C66.2 52.41 67.17 52.5 68.15 52.51C68.24 52.51 68.32 52.51 68.41 52.51H77.15C77.21 52.88 77.25 53.25 77.28 53.63C77.28 53.67 77.29 53.7 77.3 53.73C77.3 53.83 77.32 53.93 77.32 54.03C77.33 54.19 77.34 54.36 77.35 54.53V54.57C77.35 54.67 77.36 54.78 77.36 54.89V54.92C77.36 55.03 77.36 55.13 77.36 55.24L77.34 55.27Z" fill="#BE946D"/>
<path d="M45.55 38.32H29.91C29.19 37.55 28.5 36.76 27.84 35.94H45.17C45.25 36.75 45.37 37.54 45.55 38.32Z" fill="#BE946D"/>
<path d="M47.43 43.51H35.86C34.81 42.77 33.8 41.97 32.84 41.13H46.39C46.49 41.41 46.6 41.68 46.72 41.96C46.84 42.25 46.97 42.54 47.1 42.83C47.19 43.03 47.29 43.23 47.39 43.42C47.41 43.45 47.42 43.48 47.43 43.51Z" fill="#BE946D"/>
<path d="M76.42 49.69C76.42 49.69 76.42 49.67 76.41 49.66C76.38 49.59 76.36 49.52 76.34 49.45C76.23 49.16 76.13 48.88 76.01 48.61C75.95 48.47 75.9 48.34 75.84 48.22C75.82 48.17 75.8 48.13 75.78 48.08C75.73 47.99 75.7 47.89 75.65 47.79C75.59 47.67 75.53 47.56 75.48 47.45C75.45 47.4 75.43 47.34 75.4 47.3C75.37 47.25 75.35 47.21 75.33 47.16C75.19 46.91 75.05 46.66 74.91 46.42C74.86 46.34 74.81 46.26 74.76 46.17C74.75 46.15 74.73 46.13 74.72 46.11C74.66 46.01 74.6 45.91 74.53 45.81C74.51 45.77 74.49 45.74 74.47 45.71C74.47 45.7 74.45 45.68 74.45 45.68C74.24 45.36 74.02 45.06 73.8 44.76C73.75 44.7 73.71 44.65 73.66 44.59C73.46 44.34 73.26 44.09 73.05 43.86C73 43.8 72.96 43.75 72.91 43.7C72.74 43.51 72.56 43.32 72.38 43.14C72.32 43.07 72.26 43.01 72.2 42.95C72.17 42.93 72.15 42.9 72.13 42.88C72.13 42.87 72.12 42.86 72.11 42.86C72.01 42.76 71.9 42.66 71.79 42.55C71.74 42.5 71.69 42.46 71.64 42.41C71.5 42.28 71.36 42.16 71.22 42.04C71.08 41.92 70.93 41.8 70.79 41.68C70.74 41.64 70.69 41.6 70.64 41.57C70.38 41.37 70.12 41.18 69.86 41C69.8 40.95 69.73 40.91 69.67 40.87C69.53 40.77 69.38 40.68 69.24 40.59C69.13 40.52 69.02 40.45 68.9 40.38C68.82 40.34 68.75 40.29 68.68 40.24C68.53 40.15 68.37 40.07 68.21 39.98C68.08 39.91 67.94 39.84 67.81 39.78C67.8 39.78 67.79 39.77 67.79 39.77C67.6 39.67 67.4 39.58 67.2 39.49C67.07 39.43 66.93 39.37 66.79 39.31C66.69 39.26 66.6 39.22 66.5 39.19C66.4 39.15 66.31 39.11 66.2 39.07C66.03 39 65.87 38.94 65.7 38.89C65.58 38.84 65.45 38.8 65.33 38.76C65.33 38.76 65.32 38.76 65.31 38.76C65.15 38.71 64.98 38.66 64.81 38.61C64.73 38.58 64.65 38.56 64.56 38.54C64.45 38.51 64.35 38.48 64.24 38.46C64.1 38.42 63.96 38.39 63.83 38.36H63.82C63.68 38.33 63.54 38.3 63.4 38.27C63.33 38.25 63.25 38.24 63.18 38.23C62.86 38.17 62.54 38.12 62.22 38.08C61.79 38.02 61.35 37.98 60.91 37.96C60.77 37.96 60.61 37.95 60.47 37.94C60.47 37.94 60.46 37.94 60.45 37.94C60.31 37.93 60.17 37.93 60.03 37.93C59.97 37.93 59.91 37.93 59.84 37.93C59.78 37.93 59.72 37.93 59.66 37.93C59.62 37.93 59.58 37.93 59.54 37.93C59.4 37.94 59.26 37.94 59.13 37.95C58.66 37.97 58.19 38.02 57.73 38.08C57.73 38.08 58.91 40.35 59.07 40.34C59.23 40.33 59.39 40.32 59.55 40.32C59.71 40.32 59.86 40.31 60.02 40.31H60.04C60.55 40.31 61.05 40.34 61.55 40.39C61.68 40.41 61.81 40.42 61.93 40.44C62.05 40.45 62.18 40.47 62.3 40.49C62.42 40.51 62.55 40.53 62.67 40.55C63.06 40.62 63.43 40.7 63.81 40.8C63.91 40.82 64.01 40.85 64.12 40.88C64.35 40.95 64.59 41.02 64.82 41.1C64.94 41.14 65.05 41.18 65.17 41.22C65.37 41.3 65.58 41.37 65.78 41.46C68.82 42.72 71.35 44.96 72.98 47.79H68.42C66.65 47.79 64.93 47.45 63.34 46.83C63.24 46.78 63.14 46.74 63.03 46.7C60.24 45.53 57.74 43.53 56.31 40.79C56.03 40.25 55.51 39.15 55.29 38.59C54.68 37.08 54.45 35.46 54.45 33.82V26H22C22.32 26.8 22.67 27.6 23.06 28.38H52.06V33.82C52.06 35.75 52.39 37.62 53.04 39.4C53.18 39.79 53.34 40.17 53.51 40.55C53.67 40.9 53.84 41.24 54.02 41.57C55.01 43.42 56.35 45.03 57.91 46.34C60.45 48.47 63.61 49.81 66.99 50.1C67.09 50.11 67.19 50.12 67.29 50.12C67.66 50.15 68.03 50.16 68.4 50.16H76.59C76.54 50.01 76.48 49.85 76.42 49.69Z" fill="#BE946D"/>
<defs>
<filter id="filter0_d_28_10983" x="1.27" y="0.269999" width="97.46" height="97.46" filterUnits="userSpaceOnUse" color-interpolation-filters="sRGB">
<feFlood flood-opacity="0" result="BackgroundImageFix"/>
<feColorMatrix in="SourceAlpha" type="matrix" values="0 0 0 0 0 0 0 0 0 0 0 0 0 0 0 0 0 0 127 0" result="hardAlpha"/>
<feOffset/>
<feGaussianBlur stdDeviation="1.55"/>
<feColorMatrix type="matrix" values="0 0 0 0 0.752941 0 0 0 0 0.588235 0 0 0 0 0.427451 0 0 0 1 0"/>
<feBlend mode="normal" in2="BackgroundImageFix" result="effect1_dropShadow_28_10983"/>
<feBlend mode="normal" in="SourceGraphic" in2="effect1_dropShadow_28_10983" result="shape"/>
</filter>
<filter id="filter1_d_28_10983" x="0.23" y="2.74" width="99.54" height="99.54" filterUnits="userSpaceOnUse" color-interpolation-filters="sRGB">
<feFlood flood-opacity="0" result="BackgroundImageFix"/>
<feColorMatrix in="SourceAlpha" type="matrix" values="0 0 0 0 0 0 0 0 0 0 0 0 0 0 0 0 0 0 127 0" result="hardAlpha"/>
<feOffset dy="3.51"/>
<feGaussianBlur stdDeviation="2.01"/>
<feColorMatrix type="matrix" values="0 0 0 0 0 0 0 0 0 0 0 0 0 0 0 0 0 0 0.29 0"/>
<feBlend mode="normal" in2="BackgroundImageFix" result="effect1_dropShadow_28_10983"/>
<feBlend mode="normal" in="SourceGraphic" in2="effect1_dropShadow_28_10983" result="shape"/>
</filter>
<linearGradient id="paint0_linear_28_10983" x1="4.37" y1="49" x2="95.63" y2="49" gradientUnits="userSpaceOnUse">
<stop stop-color="#FFE38F"/>
<stop offset="0.12" stop-color="#F5D689"/>
<stop offset="0.49" stop-color="#D8B37A"/>
<stop offset="0.8" stop-color="#C69D70"/>
<stop offset="1" stop-color="#C0966D"/>
</linearGradient>
<linearGradient id="paint1_linear_28_10983" x1="3.41" y1="2.41" x2="250.2" y2="249.19" gradientUnits="userSpaceOnUse">
<stop stop-color="white"/>
<stop offset="0.14" stop-color="#F1F1F1"/>
<stop offset="0.21" stop-color="white"/>
<stop offset="0.29" stop-color="#DFDFDF"/>
<stop offset="0.37" stop-color="#CACACA"/>
<stop offset="0.42" stop-color="#C3C3C3"/>
<stop offset="0.52" stop-color="#D5D5D5"/>
<stop offset="0.65" stop-color="#E4E4E4"/>
<stop offset="0.79" stop-color="#EEEEEE"/>
<stop offset="1" stop-color="#F1F1F1"/>
</linearGradient>
<linearGradient id="paint2_linear_28_10983" x1="4.25" y1="49" x2="95.75" y2="49" gradientUnits="userSpaceOnUse">
<stop stop-color="#C0966D"/>
<stop offset="0.2" stop-color="#C69D70"/>
<stop offset="0.51" stop-color="#D8B37A"/>
<stop offset="0.88" stop-color="#F5D689"/>
<stop offset="1" stop-color="#FFE38F"/>
</linearGradient>
</defs>
</svg>
