<svg width="1621" height="417" viewBox="0 0 1621 417" fill="none" xmlns="http://www.w3.org/2000/svg">
<path d="M494.49 261.73C494.49 347.04 425.08 416.45 339.77 416.45C329.88 416.45 320.27 415.49 310.93 413.66C309.38 413.39 307.78 413.07 306.23 412.7C305.68 412.56 305.09 412.47 304.5 412.29C303.22 412.02 301.9 411.7 300.62 411.33H300.53C297.06 410.46 293.75 409.41 290.37 408.32C288.63 407.73 286.95 407.09 285.21 406.45C283.47 405.81 281.79 405.13 280.1 404.44C278.36 403.71 276.63 402.94 274.94 402.16C272.84 401.25 270.83 400.24 268.84 399.15H185.27L198.63 325.06L206.78 279.81H227.01L219.77 320.09L214.02 351.81L209.09 379.25H276.67C277.68 379.84 278.68 380.35 279.73 380.85C281.15 381.58 282.51 382.26 283.88 382.86C286.66 384.18 289.48 385.37 292.4 386.46C293.86 387.01 295.27 387.51 296.78 388.01C303.47 390.34 310.46 392.12 317.61 393.3C324.8 394.53 332.2 395.17 339.76 395.17C341.36 395.17 343 395.12 344.64 395.08C397.91 393.12 443.3 359.85 462.89 313.09C467.23 302.7 470.32 291.63 471.91 280.05C472.73 274.09 473.19 267.97 473.19 261.74C473.19 260.74 473.19 259.82 473.14 258.82V258.59H417.77V259.5C417.77 303.34 382.13 338.98 338.29 338.98C294.45 338.98 258.76 303.34 258.76 259.5V258.59C258.85 251.21 259.95 244.09 261.95 237.35C265.65 224.45 272.57 212.97 281.73 203.67C269.51 191.55 258.9 177.78 250.29 162.57C249.15 160.65 248.06 158.65 247.01 156.65C246 154.64 245 152.59 244 150.6C242.77 148 241.63 145.44 240.58 142.81C239.53 140.35 238.53 137.88 237.61 135.39C234.55 127.19 232.1 118.81 230.28 110.23C228.68 103.26 227.59 96.1401 226.86 88.9901C226.22 82.7101 225.9 76.37 225.9 70.04V65.5701H34.91C30.21 58.6501 25.71 51.53 21.55 44.29H247.23V70.04C247.23 90.77 250.97 110.87 258.39 129.97C259.85 133.85 261.49 137.67 263.27 141.41C264.55 144.19 265.96 146.84 267.38 149.43C275.76 164.88 286.38 178.73 298.78 190.58C305.61 197.18 313 203.11 320.84 208.39C313.42 210.94 306.66 215.08 301.11 220.42C296.04 225.21 291.95 230.95 289.08 237.37C286.11 243.83 284.43 251.04 284.33 258.61C284.29 258.93 284.29 259.2 284.29 259.52C284.29 289.32 308.54 313.57 338.34 313.57C368.14 313.57 392.34 289.32 392.34 259.52C392.34 259.2 392.34 258.93 392.3 258.61C392.21 250.14 390.06 242.11 386.43 235C394.95 236.42 403.6 237.24 412.37 237.33C413.14 237.37 413.87 237.37 414.65 237.37H492.71C493.21 240.7 493.62 244.02 493.85 247.39C493.9 247.71 493.94 248.03 493.99 248.3C494.03 249.21 494.13 250.08 494.17 250.95C494.26 252.41 494.35 253.92 494.4 255.42V255.74C494.45 256.65 494.49 257.66 494.49 258.61V258.84C494.5 259.81 494.5 260.73 494.5 261.73" fill="#C49A6D"/>
<path d="M210.43 110.22H70.6399C64.1799 103.38 57.9999 96.2602 52.1699 88.9402H207.02C207.75 96.1302 208.85 103.24 210.43 110.22Z" fill="#C49A6D"/>
<path d="M227.18 156.66H123.74C114.39 150.03 105.37 142.89 96.71 135.38H217.79C218.7 137.87 219.68 140.34 220.73 142.8C221.78 145.42 222.93 147.99 224.17 150.56C225.01 152.34 225.9 154.1 226.79 155.85C226.93 156.14 227.05 156.4 227.18 156.66Z" fill="#C49A6D"/>
<path d="M486.29 211.83C486.29 211.74 486.25 211.69 486.2 211.56C485.97 210.92 485.79 210.28 485.56 209.64C484.6 207.08 483.64 204.57 482.59 202.13V202.04C482.09 200.9 481.59 199.76 481.08 198.62C480.9 198.21 480.71 197.8 480.53 197.39C480.12 196.57 479.8 195.66 479.39 194.84C478.89 193.79 478.34 192.78 477.84 191.78C477.61 191.32 477.39 190.82 477.11 190.41C476.88 190 476.7 189.59 476.52 189.18C475.29 186.95 474.06 184.71 472.73 182.53C472.27 181.8 471.86 181.07 471.41 180.34C471.32 180.16 471.18 179.97 471.04 179.79C470.49 178.88 469.94 178.01 469.3 177.1C469.12 176.78 468.93 176.46 468.75 176.19C468.71 176.1 468.61 175.96 468.57 175.91C466.7 173.08 464.74 170.34 462.74 167.71C462.33 167.21 461.92 166.7 461.51 166.16C459.73 163.92 457.95 161.73 456.05 159.6C455.64 159.1 455.23 158.64 454.82 158.18C453.27 156.44 451.72 154.8 450.07 153.16C449.52 152.57 448.98 152.02 448.43 151.47C448.2 151.29 448.02 151.06 447.79 150.88C447.75 150.79 447.7 150.74 447.65 150.74C446.74 149.83 445.78 148.92 444.82 148C444.36 147.59 443.95 147.22 443.45 146.77C442.22 145.63 440.94 144.53 439.71 143.48C438.43 142.39 437.16 141.34 435.88 140.28C435.42 139.96 435.01 139.6 434.56 139.28C432.28 137.5 429.95 135.81 427.59 134.17C427.04 133.76 426.45 133.4 425.9 132.98C424.62 132.11 423.34 131.25 422.02 130.47C421.02 129.83 420.01 129.24 418.96 128.6C418.27 128.23 417.64 127.78 416.95 127.37C415.58 126.6 414.17 125.82 412.75 125.04C411.56 124.4 410.38 123.81 409.19 123.22C409.1 123.17 409.05 123.13 409.01 123.13C407.28 122.22 405.5 121.39 403.73 120.62C402.54 120.07 401.31 119.53 400.08 119.02C399.21 118.61 398.34 118.25 397.48 117.93C396.61 117.56 395.74 117.24 394.83 116.88C393.32 116.29 391.86 115.74 390.36 115.24C389.26 114.83 388.17 114.46 387.08 114.1C387.08 114.1 386.99 114.06 386.94 114.06C385.48 113.6 384.02 113.15 382.51 112.74C381.78 112.51 381.05 112.33 380.27 112.1C379.31 111.83 378.4 111.6 377.4 111.37C376.17 111.05 374.93 110.73 373.7 110.46H373.61C372.38 110.18 371.15 109.91 369.87 109.64C369.23 109.5 368.55 109.41 367.91 109.27C365.08 108.77 362.22 108.26 359.3 107.9C355.46 107.4 351.56 107.03 347.59 106.85C346.31 106.81 344.94 106.76 343.67 106.71C343.62 106.67 343.58 106.67 343.49 106.71C342.26 106.62 341.03 106.62 339.75 106.62C339.2 106.62 338.65 106.62 338.06 106.66C337.51 106.62 336.96 106.66 336.42 106.7C336.05 106.66 335.69 106.66 335.33 106.7C334.1 106.79 332.86 106.79 331.68 106.88C327.44 107.06 323.3 107.47 319.15 108.02C319.15 108.02 329.72 128.3 331.14 128.21C332.55 128.12 334.01 128.03 335.43 128.03C336.84 127.98 338.21 127.94 339.63 127.94H339.77C344.33 127.94 348.84 128.17 353.26 128.63C354.4 128.77 355.54 128.86 356.64 129.04C357.74 129.13 358.88 129.31 359.97 129.5C361.07 129.64 362.16 129.82 363.25 130.05C366.72 130.64 370.08 131.37 373.41 132.28C374.32 132.46 375.24 132.74 376.15 133.01C378.25 133.6 380.35 134.24 382.39 134.97C383.44 135.29 384.45 135.66 385.49 136.06C387.32 136.75 389.19 137.43 390.95 138.2C418.12 149.46 440.72 169.46 455.29 194.76H414.51C398.69 194.76 383.34 191.75 369.12 186.2C368.25 185.79 367.34 185.42 366.38 185.06C341.4 174.63 319.1 156.74 306.35 132.25C303.85 127.46 299.23 117.63 297.19 112.61C291.7 99.1201 289.68 84.6801 289.68 69.9601V0.0900879H0C2.87 7.24009 6.00999 14.3601 9.42999 21.3301H268.56V69.9601C268.56 87.1801 271.48 103.91 277.31 119.85V119.9C278.59 123.37 279.96 126.77 281.51 130.11C282.92 133.26 284.43 136.25 286.07 139.27V139.31C294.95 155.81 306.85 170.16 320.84 181.87C343.54 200.87 371.78 212.86 402.01 215.5H402.05C402.92 215.59 403.83 215.64 404.7 215.68C408.03 215.95 411.3 216.05 414.63 216.05H487.81C487.38 214.7 486.79 213.3 486.29 211.84" fill="#C49A6D"/>
<path d="M778.79 55.8801V243.64H755.11V159.58H658.82V243.64H635.14V55.8801H658.82V138.06H755.11V55.8801H778.79Z" fill="#C49A6D"/>
<path d="M962.14 175.45C962.14 178.93 961.79 182.34 961.23 185.72H837.48C843.04 207.19 865.67 223.31 892.68 223.31C910.4 223.31 926.65 216.36 937.2 204.94L959.16 214.25C944.43 233.14 919.72 244.83 892.68 244.83C848.44 244.83 812.45 213.7 812.45 175.45C812.45 137.2 846.03 106.07 887.29 106.07C928.55 106.07 962.13 137.19 962.14 175.45ZM937.24 165.18C932.19 143.71 911.73 127.59 887.29 127.59C862.85 127.59 842.38 143.71 837.34 165.18H937.24Z" fill="#C49A6D"/>
<path d="M1082.28 110.12L1076.84 133.01C1072.11 130.22 1066.53 128.59 1060.14 128.22C1049.65 127.55 1039.61 129.99 1031.53 137.47C1027.62 141.17 1024.3 146.04 1022.08 151.33C1019.85 156.69 1018.81 162.45 1018.42 168.56C1018.36 169.39 1018.32 170.21 1018.26 171.04V242.51H994.58V108.4H1018.26V130.36C1018.46 130.01 1018.62 129.64 1018.83 129.29C1022.62 122.93 1028.58 117.04 1035.93 113.11C1039.59 111.16 1043.59 109.57 1047.69 108.55C1051.81 107.55 1056 106.99 1060.12 106.79C1067.34 106.52 1075.1 107.5 1082.27 110.11L1082.28 110.12Z" fill="#C49A6D"/>
<path d="M1284.84 170.14V165.62L1284.82 163.36L1284.77 161.4C1284.66 158.8 1284.38 156.25 1283.91 153.79C1283.05 148.93 1281.16 144.32 1278.68 140.53C1273.6 132.98 1266.58 128.92 1256.97 128.19C1254.52 127.99 1252.16 128.01 1249.89 128.33C1247.6 128.58 1245.36 129.08 1243.15 129.92C1238.74 131.45 1234.5 134.3 1230.97 138.32C1227.5 142.36 1224.59 147.38 1222.98 152.8C1221.6 157.09 1221.05 161.63 1220.72 166.36V170.17L1220.78 242.48H1197.1L1197.16 170.17V165.65L1197.14 163.39L1197.08 161.43C1196.97 158.83 1196.69 156.28 1196.23 153.82C1195.36 148.96 1193.48 144.35 1191 140.56C1185.92 133.01 1178.9 128.95 1169.29 128.22C1166.84 128.02 1164.48 128.04 1162.21 128.36C1159.92 128.61 1157.67 129.11 1155.46 129.95C1151.05 131.48 1146.81 134.33 1143.28 138.35C1139.81 142.39 1136.9 147.41 1135.29 152.83C1133.98 156.87 1133.41 161.13 1133.08 165.57V242.52H1109.4V108.4H1133.08V126.65C1135.98 121.99 1139.97 117.62 1145.12 114.23C1148.61 111.99 1152.52 110.13 1156.67 108.88C1160.81 107.67 1165.09 107.04 1169.27 106.81C1173.47 106.68 1177.85 106.97 1182.21 107.87C1186.55 108.8 1190.78 110.36 1194.67 112.39C1202.5 116.56 1208.6 122.87 1212.53 129.62C1213.96 132.05 1215.08 134.53 1216.08 137.02C1216.63 135.29 1217.26 133.55 1218.03 131.82C1220.88 125.32 1225.77 118.86 1232.81 114.23C1236.3 111.99 1240.23 110.13 1244.36 108.88C1248.5 107.67 1252.78 107.04 1256.96 106.81C1261.16 106.68 1265.55 106.97 1269.9 107.87C1274.24 108.8 1278.47 110.36 1282.35 112.39C1290.18 116.56 1296.29 122.87 1300.22 129.62C1304.19 136.37 1306.33 143.43 1307.51 150.47C1308.08 153.97 1308.35 157.44 1308.42 160.85V170.19L1308.47 242.5H1284.79L1284.83 170.14H1284.84Z" fill="#C49A6D"/>
<path d="M1488.43 175.45C1488.43 178.93 1488.08 182.34 1487.52 185.72H1363.77C1369.34 207.19 1391.96 223.31 1418.97 223.31C1436.69 223.31 1452.94 216.36 1463.49 204.94L1485.45 214.25C1470.71 233.14 1446.01 244.83 1418.97 244.83C1374.73 244.83 1338.75 213.7 1338.75 175.45C1338.75 137.2 1372.32 106.07 1413.59 106.07C1454.86 106.07 1488.43 137.19 1488.44 175.45H1488.43ZM1463.53 165.18C1458.48 143.71 1438.02 127.59 1413.58 127.59C1389.14 127.59 1368.67 143.71 1363.63 165.18H1463.52H1463.53Z" fill="#C49A6D"/>
<path d="M1620.61 205.04C1620.92 215.39 1616.83 224.66 1608.76 231.84C1599.41 240.17 1585.55 244.82 1570.37 244.82C1569.29 244.82 1568.2 244.8 1567.1 244.75C1540.93 243.62 1519.85 228.82 1513.39 207.05L1536.26 201.45C1540.78 216.7 1555.75 222.71 1568.24 223.25C1577.99 223.68 1586.95 221.15 1592.2 216.47C1595.52 213.51 1597.08 209.96 1596.95 205.63C1596.58 193.23 1583.43 188.01 1567.57 182.93C1565.28 182.19 1563.19 181.52 1561.42 180.88C1560.52 180.55 1559.5 180.21 1558.38 179.83C1546.35 175.71 1518.16 166.1 1520.24 140.53C1521.59 123.93 1536.73 106.07 1566.79 106.07C1590.36 106.07 1607.76 116.04 1615.81 134.13L1593.86 142.2C1592.26 138.59 1587.36 127.6 1566.79 127.6C1565.91 127.6 1545.03 127.76 1543.87 142.12C1543.23 150.02 1552.14 154.69 1566.73 159.67C1568.02 160.11 1569.2 160.51 1570.23 160.88C1571.74 161.44 1573.53 162 1575.48 162.63C1589.87 167.24 1619.81 176.85 1620.61 205.04Z" fill="#C49A6D"/>
<path d="M702.55 341.08C702.55 345.17 701.65 349 699.89 352.47C698.12 355.97 695.52 359.01 692.19 361.51C688.97 363.94 685.07 365.82 680.62 367.12C676.3 368.38 671.44 369.01 666.18 369.01H640.08V410.46H627.81V313.13H666.19C671.46 313.13 676.32 313.77 680.63 315.02C685.08 316.31 688.97 318.18 692.18 320.58C695.52 323.07 698.12 326.1 699.9 329.61C701.67 333.08 702.56 336.94 702.55 341.07V341.08ZM690.29 341.08C690.29 338.54 689.79 336.33 688.76 334.3C687.75 332.31 686.32 330.65 684.4 329.22C682.38 327.72 679.85 326.52 676.88 325.66C673.78 324.76 670.18 324.3 666.18 324.3H640.08V357.85H666.18C670.18 357.85 673.78 357.39 676.89 356.49C679.84 355.63 682.36 354.43 684.38 352.92C686.31 351.47 687.74 349.79 688.76 347.79C689.79 345.77 690.29 343.57 690.29 341.08Z" fill="#C49A6D"/>
<path d="M763.05 341.27L760.23 353.14C757.77 351.69 754.88 350.85 751.57 350.66C746.13 350.31 740.92 351.58 736.74 355.45C734.71 357.37 732.99 359.89 731.84 362.63C730.68 365.41 730.15 368.39 729.94 371.56C729.91 371.99 729.89 372.42 729.86 372.85V409.89H717.59V340.38H729.86V351.76C729.96 351.58 730.04 351.39 730.15 351.21C732.12 347.91 735.21 344.86 739.01 342.82C740.9 341.81 742.98 340.99 745.11 340.46C747.24 339.94 749.41 339.65 751.55 339.55C755.29 339.41 759.31 339.92 763.03 341.27H763.05Z" fill="#C49A6D"/>
<path d="M847.18 375.13C847.18 394.96 829.78 411.09 808.39 411.09C787 411.09 769.6 394.96 769.6 375.13C769.6 355.3 787 339.17 808.39 339.17C829.78 339.17 847.18 355.3 847.18 375.13ZM834.91 375.13C834.91 361.45 823.02 350.32 808.39 350.32C793.76 350.32 781.87 361.45 781.87 375.13C781.87 388.81 793.76 399.93 808.39 399.93C823.02 399.93 834.91 388.8 834.91 375.13Z" fill="#C49A6D"/>
<path d="M882.28 351.54V384.44C882.28 393.04 883.64 395.6 886 397.13C889.36 399.3 897 398.91 903.25 398.22V409.42C900.39 409.7 897.57 409.89 894.85 409.89C888.76 409.89 883.18 408.98 878.9 406.2C870.7 400.9 870.02 392.18 870.02 384.42V351.53H855.66V340.38H870.02V324.28L882.29 317.84V340.38H903.26V351.54H882.29H882.28Z" fill="#C49A6D"/>
<path d="M991.21 375.13C991.21 394.96 973.81 411.09 952.42 411.09C931.03 411.09 913.63 394.96 913.63 375.13C913.63 355.3 931.03 339.17 952.42 339.17C973.81 339.17 991.21 355.3 991.21 375.13ZM978.94 375.13C978.94 361.45 967.05 350.32 952.42 350.32C937.79 350.32 925.9 361.45 925.9 375.13C925.9 388.81 937.79 399.93 952.42 399.93C967.05 399.93 978.94 388.8 978.94 375.13Z" fill="#C49A6D"/>
<path d="M1061.62 389.1L1071.56 395.65C1064.53 404.46 1053.34 409.7 1041.58 409.7H1041.49C1020.92 409.65 1004.24 394.11 1004.29 375.04C1004.31 365.83 1008.2 357.17 1015.23 350.66C1022.27 344.13 1031.63 340.54 1041.58 340.54H1041.67C1053.52 340.56 1064.77 345.92 1071.76 354.85L1061.76 361.32C1056.99 355.22 1049.66 351.72 1041.64 351.7H1041.58C1034.95 351.7 1028.7 354.1 1023.98 358.47C1019.21 362.89 1016.57 368.78 1016.55 375.06C1016.52 387.97 1027.71 398.51 1041.51 398.53H1041.57C1049.52 398.53 1056.82 395.09 1061.62 389.09V389.1Z" fill="#C49A6D"/>
<path d="M1161.66 375.13C1161.66 394.96 1144.26 411.09 1122.87 411.09C1101.48 411.09 1084.08 394.96 1084.08 375.13C1084.08 355.3 1101.48 339.17 1122.87 339.17C1144.26 339.17 1161.66 355.3 1161.66 375.13ZM1149.39 375.13C1149.39 361.45 1137.5 350.32 1122.87 350.32C1108.24 350.32 1096.35 361.45 1096.35 375.13C1096.35 388.81 1108.24 399.93 1122.87 399.93C1137.5 399.93 1149.39 388.8 1149.39 375.13Z" fill="#C49A6D"/>
<path d="M1178.34 409.92V312.6H1190.61V409.92H1178.34Z" fill="#C49A6D"/>
</svg>
