<?xml version="1.0" encoding="UTF-8"?><svg xmlns="http://www.w3.org/2000/svg" viewBox="0 0 1234.07 1080"><defs><style>.c{fill:#c49a6d;}</style></defs><g id="a"/><g id="b"><g><path class="c" d="M993.44,621.39c0,129.87-105.67,235.54-235.54,235.54-15.05,0-29.69-1.46-43.91-4.24-2.36-.42-4.79-.9-7.16-1.46-.83-.21-1.74-.35-2.64-.63-1.95-.42-3.96-.9-5.91-1.46h-.14c-5.28-1.32-10.33-2.92-15.47-4.59-2.64-.9-5.21-1.88-7.85-2.85-2.64-.97-5.21-2.01-7.78-3.06-2.64-1.11-5.28-2.29-7.85-3.47-3.2-1.39-6.25-2.92-9.29-4.59h-127.23l20.33-112.8,12.41-68.89h30.8l-11.02,61.32-8.75,48.28-7.5,41.78h102.89c1.53,.9,3.06,1.67,4.65,2.43,2.15,1.11,4.24,2.15,6.32,3.06,4.24,2.01,8.52,3.82,12.97,5.49,2.22,.83,4.38,1.6,6.67,2.36,10.19,3.54,20.82,6.25,31.7,8.06,10.95,1.88,22.21,2.85,33.72,2.85,2.43,0,4.93-.07,7.43-.14,81.1-2.99,150.2-53.63,180.03-124.82,6.6-15.82,11.3-32.68,13.73-50.3,1.25-9.08,1.95-18.39,1.95-27.88,0-1.53,0-2.92-.07-4.45v-.35h-84.3v1.39c0,66.74-54.26,121-121,121s-121.07-54.26-121.07-121v-1.39c.14-11.23,1.81-22.07,4.86-32.33,5.63-19.64,16.16-37.12,30.11-51.27-18.6-18.46-34.76-39.41-47.87-62.57-1.74-2.92-3.4-5.97-5-9.01-1.53-3.06-3.06-6.18-4.59-9.22-1.88-3.96-3.61-7.85-5.21-11.86-1.6-3.75-3.13-7.5-4.52-11.3-4.65-12.48-8.38-25.24-11.16-38.3-2.43-10.61-4.1-21.44-5.21-32.33-.97-9.56-1.46-19.22-1.46-28.85v-6.81H293.77c-7.16-10.54-14.01-21.37-20.33-32.4h343.57v39.21c0,31.56,5.7,62.16,17,91.24,2.22,5.91,4.72,11.72,7.43,17.41,1.95,4.24,4.1,8.27,6.25,12.2,12.76,23.53,28.92,44.6,47.8,62.64,10.4,10.05,21.65,19.08,33.58,27.12-11.3,3.89-21.58,10.19-30.04,18.32-7.71,7.29-13.94,16.03-18.32,25.8-4.52,9.84-7.09,20.82-7.23,32.33-.07,.49-.07,.9-.07,1.39,0,45.37,36.91,82.28,82.28,82.28s82.21-36.91,82.21-82.28c0-.49,0-.9-.07-1.39-.14-12.9-3.4-25.13-8.94-35.94,12.97,2.15,26.15,3.4,39.48,3.54,1.18,.07,2.29,.07,3.47,.07h118.85c.76,5.07,1.39,10.12,1.74,15.26,.07,.49,.14,.97,.21,1.39,.07,1.39,.21,2.71,.28,4.03,.14,2.22,.28,4.52,.35,6.81v.49c.07,1.39,.14,2.92,.14,4.38v.35c.02,1.48,.02,2.87,.02,4.4Z"/><path class="c" d="M560.99,390.74h-212.82c-9.84-10.42-19.24-21.26-28.11-32.4h235.75c1.11,10.95,2.78,21.77,5.19,32.4Z"/><path class="c" d="M586.49,461.44h-157.47c-14.24-10.1-27.97-20.96-41.15-32.4h184.34c1.39,3.8,2.87,7.55,4.47,11.3,1.6,3.98,3.36,7.9,5.23,11.81,1.27,2.71,2.64,5.4,3.98,8.06,.21,.44,.39,.83,.6,1.23Z"/><path class="c" d="M980.96,545.43c0-.14-.07-.21-.14-.42-.35-.97-.63-1.95-.97-2.92-1.46-3.89-2.92-7.71-4.52-11.44v-.14c-.76-1.74-1.53-3.47-2.29-5.21l-.83-1.88c-.63-1.25-1.11-2.64-1.74-3.89-.76-1.6-1.6-3.13-2.36-4.65-.35-.69-.69-1.46-1.11-2.08-.35-.63-.63-1.25-.9-1.88-1.88-3.4-3.75-6.81-5.77-10.12-.69-1.11-1.32-2.22-2.01-3.33-.14-.28-.35-.56-.56-.83-.83-1.39-1.67-2.71-2.64-4.1-.28-.49-.56-.97-.83-1.39-.07-.14-.21-.35-.28-.42-2.85-4.31-5.84-8.48-8.87-12.48-.63-.76-1.25-1.53-1.88-2.36-2.71-3.4-5.42-6.74-8.31-9.98-.63-.76-1.25-1.46-1.88-2.15-2.36-2.64-4.72-5.14-7.23-7.64-.83-.9-1.67-1.74-2.5-2.57-.35-.28-.63-.63-.97-.9-.07-.14-.14-.21-.21-.21-1.39-1.39-2.85-2.78-4.31-4.17-.69-.63-1.32-1.18-2.08-1.88-1.88-1.74-3.82-3.4-5.7-5-1.95-1.67-3.89-3.27-5.84-4.86-.69-.49-1.32-1.04-2.01-1.53-3.47-2.71-7.02-5.28-10.61-7.78-.83-.63-1.74-1.18-2.57-1.81-1.95-1.32-3.89-2.64-5.91-3.82-1.53-.97-3.06-1.88-4.65-2.85-1.04-.56-2.01-1.25-3.06-1.88-2.08-1.18-4.24-2.36-6.39-3.54-1.81-.97-3.61-1.88-5.42-2.78-.14-.07-.21-.14-.28-.14-2.64-1.39-5.35-2.64-8.04-3.82-1.81-.83-3.68-1.67-5.56-2.43-1.32-.63-2.64-1.18-3.96-1.67-1.32-.56-2.64-1.04-4.03-1.6-2.29-.9-4.52-1.74-6.81-2.5-1.67-.63-3.33-1.18-5-1.74,0,0-.14-.07-.21-.07-2.22-.69-4.45-1.39-6.74-2.01-1.11-.35-2.22-.63-3.4-.97-1.46-.42-2.85-.76-4.38-1.11-1.88-.49-3.75-.97-5.63-1.39h-.14c-1.88-.42-3.75-.83-5.7-1.25-.97-.21-2.01-.35-2.99-.56-4.31-.76-8.66-1.53-13.11-2.08-5.84-.76-11.79-1.32-17.83-1.6-1.95-.07-4.03-.14-5.97-.21-.07-.07-.14-.07-.28,0-1.88-.14-3.75-.14-5.7-.14-.83,0-1.67,0-2.57,.07-.83-.07-1.67,0-2.5,.07-.56-.07-1.11-.07-1.67,0-1.88,.14-3.75,.14-5.56,.28-6.46,.28-12.76,.9-19.08,1.74,0,0,16.09,30.87,18.25,30.73,2.15-.14,4.38-.28,6.53-.28,2.15-.07,4.24-.14,6.39-.14h.21c6.95,0,13.8,.35,20.54,1.04,1.74,.21,3.47,.35,5.14,.63,1.67,.14,3.4,.42,5.07,.69,1.67,.21,3.33,.49,5,.83,5.28,.9,10.4,2.01,15.47,3.4,1.39,.28,2.78,.69,4.17,1.11,3.2,.9,6.39,1.88,9.49,2.99,1.6,.49,3.13,1.04,4.72,1.67,2.78,1.04,5.63,2.08,8.31,3.27,41.36,17.14,75.77,47.59,97.96,86.1h-62.09c-24.08,0-47.45-4.59-69.1-13.04-1.32-.63-2.71-1.18-4.17-1.74-38.03-15.89-71.98-43.12-91.38-80.4-3.8-7.29-10.84-22.25-13.94-29.9-8.36-20.54-11.44-42.52-11.44-64.93v-106.36H240.62c4.38,10.88,9.15,21.72,14.36,32.33h394.5v74.04c0,26.21,4.45,51.69,13.32,75.96v.07c1.95,5.28,4.03,10.47,6.39,15.54,2.15,4.79,4.45,9.36,6.95,13.94v.07c13.52,25.13,31.63,46.96,52.94,64.8,34.55,28.92,77.56,47.17,123.57,51.2h.07c1.32,.14,2.71,.21,4.03,.28,5.07,.42,10.05,.56,15.12,.56h111.41c-.65-2.06-1.55-4.19-2.32-6.41Z"/></g></g></svg>