<?xml version="1.0" encoding="UTF-8"?><svg xmlns="http://www.w3.org/2000/svg" viewBox="0 0 1924.62 701.55"><defs><style>.c{fill:#fff;}</style></defs><g id="a"/><g id="b"><path class="c" d="M646.49,403.73c0,85.31-69.41,154.72-154.72,154.72-9.89,0-19.5-.96-28.84-2.79-1.55-.27-3.15-.59-4.7-.96-.55-.14-1.14-.23-1.73-.41-1.28-.27-2.6-.59-3.88-.96h-.09c-3.47-.87-6.78-1.92-10.16-3.01-1.74-.59-3.42-1.23-5.16-1.87-1.74-.64-3.42-1.32-5.11-2.01-1.74-.73-3.47-1.5-5.16-2.28-2.1-.91-4.11-1.92-6.1-3.01h-83.57l13.36-74.09,8.15-45.25h20.23l-7.24,40.28-5.75,31.72-4.93,27.44h67.58c1.01,.59,2.01,1.1,3.06,1.6,1.42,.73,2.78,1.41,4.15,2.01,2.78,1.32,5.6,2.51,8.52,3.6,1.46,.55,2.87,1.05,4.38,1.55,6.69,2.33,13.68,4.11,20.83,5.29,7.19,1.23,14.59,1.87,22.15,1.87,1.6,0,3.24-.05,4.88-.09,53.27-1.96,98.66-35.23,118.25-81.99,4.34-10.39,7.43-21.46,9.02-33.04,.82-5.96,1.28-12.08,1.28-18.31,0-1,0-1.92-.05-2.92v-.23h-55.37v.91c0,43.84-35.64,79.48-79.48,79.48s-79.53-35.64-79.53-79.48v-.91c.09-7.38,1.19-14.5,3.19-21.24,3.7-12.9,10.62-24.38,19.78-33.68-12.22-12.12-22.83-25.89-31.44-41.1-1.14-1.92-2.23-3.92-3.28-5.92-1.01-2.01-2.01-4.06-3.01-6.05-1.23-2.6-2.37-5.16-3.42-7.79-1.05-2.46-2.05-4.93-2.97-7.42-3.06-8.2-5.51-16.58-7.33-25.16-1.6-6.97-2.69-14.09-3.42-21.24-.64-6.28-.96-12.62-.96-18.95v-4.47H186.91c-4.7-6.92-9.2-14.04-13.36-21.28h225.68v25.75c0,20.73,3.74,40.83,11.16,59.93,1.46,3.88,3.1,7.7,4.88,11.44,1.28,2.78,2.69,5.43,4.11,8.02,8.38,15.45,19,29.3,31.4,41.15,6.83,6.6,14.22,12.53,22.06,17.81-7.42,2.55-14.18,6.69-19.73,12.03-5.07,4.79-9.16,10.53-12.03,16.95-2.97,6.46-4.65,13.67-4.75,21.24-.04,.32-.04,.59-.04,.91,0,29.8,24.25,54.05,54.05,54.05s54-24.25,54-54.05c0-.32,0-.59-.04-.91-.09-8.47-2.24-16.5-5.87-23.61,8.52,1.42,17.17,2.24,25.94,2.33,.77,.04,1.5,.04,2.28,.04h78.06c.5,3.33,.91,6.65,1.14,10.02,.05,.32,.09,.64,.14,.91,.04,.91,.14,1.78,.18,2.65,.09,1.46,.18,2.97,.23,4.47v.32c.05,.91,.09,1.92,.09,2.87v.23c.01,.97,.01,1.89,.01,2.89"/><path class="c" d="M362.43,252.22H222.64c-6.46-6.84-12.64-13.96-18.47-21.28h154.85c.73,7.19,1.83,14.3,3.41,21.28"/><path class="c" d="M379.18,298.66h-103.44c-9.35-6.63-18.37-13.77-27.03-21.28h121.08c.91,2.49,1.89,4.96,2.94,7.42,1.05,2.62,2.2,5.19,3.44,7.76,.84,1.78,1.73,3.54,2.62,5.29,.14,.29,.26,.55,.39,.81"/><path class="c" d="M638.29,353.83c0-.09-.04-.14-.09-.27-.23-.64-.41-1.28-.64-1.92-.96-2.56-1.92-5.07-2.97-7.51v-.09c-.5-1.14-1-2.28-1.51-3.42-.18-.41-.37-.82-.55-1.23-.41-.82-.73-1.73-1.14-2.55-.5-1.05-1.05-2.06-1.55-3.06-.23-.46-.45-.96-.73-1.37-.23-.41-.41-.82-.59-1.23-1.23-2.23-2.46-4.47-3.79-6.65-.46-.73-.87-1.46-1.32-2.19-.09-.18-.23-.37-.37-.55-.55-.91-1.1-1.78-1.74-2.69-.18-.32-.37-.64-.55-.91-.04-.09-.14-.23-.18-.28-1.87-2.83-3.83-5.57-5.83-8.2-.41-.5-.82-1.01-1.23-1.55-1.78-2.24-3.56-4.43-5.46-6.56-.41-.5-.82-.96-1.23-1.42-1.55-1.74-3.1-3.38-4.75-5.02-.55-.59-1.09-1.14-1.64-1.69-.23-.18-.41-.41-.64-.59-.04-.09-.09-.14-.14-.14-.91-.91-1.87-1.82-2.83-2.74-.46-.41-.87-.78-1.37-1.23-1.23-1.14-2.51-2.24-3.74-3.29-1.28-1.09-2.55-2.14-3.83-3.2-.46-.32-.87-.68-1.32-1-2.28-1.78-4.61-3.47-6.97-5.11-.55-.41-1.14-.77-1.69-1.19-1.28-.87-2.56-1.73-3.88-2.51-1-.64-2.01-1.23-3.06-1.87-.69-.37-1.32-.82-2.01-1.23-1.37-.77-2.78-1.55-4.2-2.33-1.19-.64-2.37-1.23-3.56-1.82-.09-.05-.14-.09-.18-.09-1.73-.91-3.51-1.74-5.28-2.51-1.19-.55-2.42-1.09-3.65-1.6-.87-.41-1.74-.77-2.6-1.09-.87-.37-1.74-.69-2.65-1.05-1.51-.59-2.97-1.14-4.47-1.64-1.1-.41-2.19-.78-3.28-1.14,0,0-.09-.04-.14-.04-1.46-.46-2.92-.91-4.43-1.32-.73-.23-1.46-.41-2.24-.64-.96-.27-1.87-.5-2.87-.73-1.23-.32-2.47-.64-3.7-.91h-.09c-1.23-.28-2.46-.55-3.74-.82-.64-.14-1.32-.23-1.96-.37-2.83-.5-5.69-1.01-8.61-1.37-3.84-.5-7.74-.87-11.71-1.05-1.28-.04-2.65-.09-3.92-.14-.05-.04-.09-.04-.18,0-1.23-.09-2.46-.09-3.74-.09-.55,0-1.1,0-1.69,.04-.55-.04-1.1,0-1.64,.04-.37-.04-.73-.04-1.09,0-1.23,.09-2.47,.09-3.65,.18-4.24,.18-8.38,.59-12.53,1.14,0,0,10.57,20.28,11.99,20.19,1.41-.09,2.87-.18,4.29-.18,1.41-.05,2.78-.09,4.2-.09h.14c4.56,0,9.07,.23,13.49,.69,1.14,.14,2.28,.23,3.38,.41,1.1,.09,2.24,.27,3.33,.46,1.1,.14,2.19,.32,3.28,.55,3.47,.59,6.83,1.32,10.16,2.23,.91,.18,1.83,.46,2.74,.73,2.1,.59,4.2,1.23,6.24,1.96,1.05,.32,2.06,.69,3.1,1.09,1.83,.69,3.7,1.37,5.46,2.14,27.17,11.26,49.77,31.26,64.34,56.56h-40.78c-15.82,0-31.17-3.01-45.39-8.56-.87-.41-1.78-.78-2.74-1.14-24.98-10.43-47.28-28.32-60.03-52.81-2.5-4.79-7.12-14.62-9.16-19.64-5.49-13.49-7.51-27.93-7.51-42.65v-69.87H152c2.87,7.15,6.01,14.27,9.43,21.24H420.56v48.63c0,17.22,2.92,33.95,8.75,49.89v.05c1.28,3.47,2.65,6.87,4.2,10.21,1.41,3.15,2.92,6.14,4.56,9.16v.04c8.88,16.5,20.78,30.85,34.77,42.56,22.7,19,50.94,30.99,81.17,33.63h.04c.87,.09,1.78,.14,2.65,.18,3.33,.27,6.6,.37,9.93,.37h73.18c-.43-1.35-1.02-2.75-1.52-4.21"/><path class="c" d="M930.79,197.88v187.76h-23.68v-84.06h-96.29v84.06h-23.68V197.88h23.68v82.18h96.29v-82.18h23.68Z"/><path class="c" d="M1114.14,317.45c0,3.48-.35,6.89-.91,10.27h-123.75c5.56,21.47,28.19,37.59,55.2,37.59,17.72,0,33.97-6.95,44.52-18.37l21.96,9.31c-14.73,18.89-39.44,30.58-66.48,30.58-44.24,0-80.23-31.13-80.23-69.38s33.58-69.38,74.84-69.38,74.84,31.12,74.85,69.38Zm-24.9-10.27c-5.05-21.47-25.51-37.59-49.95-37.59s-44.91,16.12-49.95,37.59h99.9Z"/><path class="c" d="M1234.28,252.12l-5.44,22.89c-4.73-2.79-10.31-4.42-16.7-4.79-10.49-.67-20.53,1.77-28.61,9.25-3.91,3.7-7.23,8.57-9.45,13.86-2.23,5.36-3.27,11.12-3.66,17.23-.06,.83-.1,1.65-.16,2.48v71.47h-23.68V250.4h23.68v21.96c.2-.35,.36-.72,.57-1.07,3.79-6.36,9.75-12.25,17.1-16.18,3.66-1.95,7.66-3.54,11.76-4.56,4.12-1,8.31-1.56,12.43-1.76,7.22-.27,14.98,.71,22.15,3.32Z"/><path class="c" d="M1436.84,312.14v-4.52l-.02-2.26-.05-1.96c-.11-2.6-.39-5.15-.86-7.61-.86-4.86-2.75-9.47-5.23-13.26-5.08-7.55-12.1-11.61-21.71-12.34-2.45-.2-4.81-.18-7.08,.14-2.29,.25-4.53,.75-6.74,1.59-4.41,1.53-8.65,4.38-12.18,8.4-3.47,4.04-6.38,9.06-7.99,14.48-1.38,4.29-1.93,8.83-2.26,13.56v3.81l.06,72.31h-23.68l.06-72.31v-4.52l-.02-2.26-.06-1.96c-.11-2.6-.39-5.15-.85-7.61-.87-4.86-2.75-9.47-5.23-13.26-5.08-7.55-12.1-11.61-21.71-12.34-2.45-.2-4.81-.18-7.08,.14-2.29,.25-4.54,.75-6.75,1.59-4.41,1.53-8.65,4.38-12.18,8.4-3.47,4.04-6.38,9.06-7.99,14.48-1.31,4.04-1.88,8.3-2.21,12.74v76.95h-23.68V250.4h23.68v18.25c2.9-4.66,6.89-9.03,12.04-12.42,3.49-2.24,7.4-4.1,11.55-5.35,4.14-1.21,8.42-1.84,12.6-2.07,4.2-.13,8.58,.16,12.94,1.06,4.34,.93,8.57,2.49,12.46,4.52,7.83,4.17,13.93,10.48,17.86,17.23,1.43,2.43,2.55,4.91,3.55,7.4,.55-1.73,1.18-3.47,1.95-5.2,2.85-6.5,7.74-12.96,14.78-17.59,3.49-2.24,7.42-4.1,11.55-5.35,4.14-1.21,8.42-1.84,12.6-2.07,4.2-.13,8.59,.16,12.94,1.06,4.34,.93,8.57,2.49,12.45,4.52,7.83,4.17,13.94,10.48,17.87,17.23,3.97,6.75,6.11,13.81,7.29,20.85,.57,3.5,.84,6.97,.91,10.38v9.34l.05,72.31h-23.68l.04-72.36Z"/><path class="c" d="M1640.43,317.45c0,3.48-.35,6.89-.91,10.27h-123.75c5.57,21.47,28.19,37.59,55.2,37.59,17.72,0,33.97-6.95,44.52-18.37l21.96,9.31c-14.74,18.89-39.44,30.58-66.48,30.58-44.24,0-80.22-31.13-80.22-69.38s33.57-69.38,74.84-69.38,74.84,31.12,74.85,69.38Zm-24.9-10.27c-5.05-21.47-25.51-37.59-49.95-37.59s-44.91,16.12-49.95,37.59h99.89Z"/><path class="c" d="M1772.61,347.04c.31,10.35-3.78,19.62-11.85,26.8-9.35,8.33-23.21,12.98-38.39,12.98-1.08,0-2.17-.02-3.27-.07-26.17-1.13-47.25-15.93-53.71-37.7l22.87-5.6c4.52,15.25,19.49,21.26,31.98,21.8,9.75,.43,18.71-2.1,23.96-6.78,3.32-2.96,4.88-6.51,4.75-10.84-.37-12.4-13.52-17.62-29.38-22.7-2.29-.74-4.38-1.41-6.15-2.05-.9-.33-1.92-.67-3.04-1.05-12.03-4.12-40.22-13.73-38.14-39.3,1.35-16.6,16.49-34.46,46.55-34.46,23.57,0,40.97,9.97,49.02,28.06l-21.95,8.07c-1.6-3.61-6.5-14.6-27.07-14.6-.88,0-21.76,.16-22.92,14.52-.64,7.9,8.27,12.57,22.86,17.55,1.29,.44,2.47,.84,3.5,1.21,1.51,.56,3.3,1.12,5.25,1.75,14.39,4.61,44.33,14.22,45.13,42.41Z"/><g><path class="c" d="M854.55,483.08c0,4.09-.9,7.92-2.66,11.39-1.77,3.5-4.37,6.54-7.7,9.04-3.22,2.43-7.12,4.31-11.57,5.61-4.32,1.26-9.18,1.89-14.44,1.89h-26.1v41.45h-12.27v-97.33h38.38c5.27,0,10.13,.64,14.44,1.89,4.45,1.29,8.34,3.16,11.55,5.56,3.34,2.49,5.94,5.52,7.72,9.03,1.77,3.47,2.66,7.33,2.65,11.46Zm-12.26,0c0-2.54-.5-4.75-1.53-6.78-1.01-1.99-2.44-3.65-4.36-5.08-2.02-1.5-4.55-2.7-7.52-3.56-3.1-.9-6.7-1.36-10.7-1.36h-26.1v33.55h26.1c4,0,7.6-.46,10.71-1.36,2.95-.86,5.47-2.06,7.49-3.57,1.93-1.45,3.36-3.13,4.38-5.13,1.03-2.02,1.53-4.22,1.53-6.71Z"/><path class="c" d="M915.05,483.27l-2.82,11.87c-2.46-1.45-5.35-2.29-8.66-2.48-5.44-.35-10.65,.92-14.83,4.79-2.03,1.92-3.75,4.44-4.9,7.18-1.16,2.78-1.69,5.76-1.9,8.93-.03,.43-.05,.86-.08,1.29v37.04h-12.27v-69.51h12.27v11.38c.1-.18,.18-.37,.29-.55,1.97-3.3,5.06-6.35,8.86-8.39,1.89-1.01,3.97-1.83,6.1-2.36,2.13-.52,4.3-.81,6.44-.91,3.74-.14,7.76,.37,11.48,1.72Z"/><path class="c" d="M999.18,517.13c0,19.83-17.4,35.96-38.79,35.96s-38.79-16.13-38.79-35.96,17.4-35.96,38.79-35.96,38.79,16.13,38.79,35.96Zm-12.27,0c0-13.68-11.89-24.81-26.52-24.81s-26.52,11.13-26.52,24.81,11.89,24.8,26.52,24.8,26.52-11.13,26.52-24.8Z"/><path class="c" d="M1034.28,493.54v32.9c0,8.6,1.36,11.16,3.72,12.69,3.36,2.17,11,1.78,17.25,1.09v11.2c-2.86,.28-5.68,.47-8.4,.47-6.09,0-11.67-.91-15.95-3.69-8.2-5.3-8.88-14.02-8.88-21.78v-32.89h-14.36v-11.15h14.36v-16.1l12.27-6.44v22.54h20.97v11.16h-20.97Z"/><path class="c" d="M1143.21,517.13c0,19.83-17.4,35.96-38.79,35.96s-38.79-16.13-38.79-35.96,17.4-35.96,38.79-35.96,38.79,16.13,38.79,35.96Zm-12.27,0c0-13.68-11.89-24.81-26.52-24.81s-26.52,11.13-26.52,24.81,11.89,24.8,26.52,24.8,26.52-11.13,26.52-24.8Z"/><path class="c" d="M1213.62,531.1l9.94,6.55c-7.03,8.81-18.22,14.05-29.98,14.05h-.09c-20.57-.05-37.25-15.59-37.2-34.66,.02-9.21,3.91-17.87,10.94-24.38,7.04-6.53,16.4-10.12,26.35-10.12h.09c11.85,.02,23.1,5.38,30.09,14.31l-10,6.47c-4.77-6.1-12.1-9.6-20.12-9.62h-.06c-6.63,0-12.88,2.4-17.6,6.77-4.77,4.42-7.41,10.31-7.43,16.59-.03,12.91,11.16,23.45,24.96,23.47h.06c7.95,0,15.25-3.44,20.05-9.44Z"/><path class="c" d="M1313.66,517.13c0,19.83-17.4,35.96-38.79,35.96s-38.79-16.13-38.79-35.96,17.4-35.96,38.79-35.96,38.79,16.13,38.79,35.96Zm-12.27,0c0-13.68-11.89-24.81-26.52-24.81s-26.52,11.13-26.52,24.81,11.89,24.8,26.52,24.8,26.52-11.13,26.52-24.8Z"/><path class="c" d="M1330.34,551.92v-97.32h12.27v97.32h-12.27Z"/></g></g></svg>