<svg width="60" height="60" viewBox="0 0 60 60" fill="none" xmlns="http://www.w3.org/2000/svg">
<circle cx="30.5" cy="29.5" r="22.5" fill="white"/>
<path d="M30.5 52C36.4674 52 42.1903 49.6295 46.4099 45.4099C50.6295 41.1903 53 35.4674 53 29.5C53 23.5326 50.6295 17.8097 46.4099 13.5901C42.1903 9.37053 36.4674 7 30.5 7C24.5326 7 18.8097 9.37053 14.5901 13.5901C10.3705 17.8097 8 23.5326 8 29.5C8 35.4674 10.3705 41.1903 14.5901 45.4099C18.8097 49.6295 24.5326 52 30.5 52ZM23.3809 22.3809C24.207 21.5547 25.543 21.5547 26.3604 22.3809L30.4912 26.5117L34.6221 22.3809C35.4482 21.5547 36.7842 21.5547 37.6016 22.3809C38.4189 23.207 38.4277 24.543 37.6016 25.3604L33.4707 29.4912L37.6016 33.6221C38.4277 34.4482 38.4277 35.7842 37.6016 36.6016C36.7754 37.4189 35.4395 37.4277 34.6221 36.6016L30.4912 32.4707L26.3604 36.6016C25.5342 37.4277 24.1982 37.4277 23.3809 36.6016C22.5635 35.7754 22.5547 34.4395 23.3809 33.6221L27.5117 29.4912L23.3809 25.3604C22.5547 24.5342 22.5547 23.1982 23.3809 22.3809Z" fill="#CF0012"/>
</svg>
