<svg width="60" height="60" viewBox="0 0 60 60" fill="none" xmlns="http://www.w3.org/2000/svg">
<circle cx="30.5" cy="29.5" r="22.5" fill="white"/>
<path d="M30.5 7C18.0723 7 8 17.0723 8 29.5C8 41.9277 18.0723 52 30.5 52C42.9277 52 53 41.9277 53 29.5C53 17.0723 42.9277 7 30.5 7ZM28.3906 20.3594C28.3906 19.1992 29.3398 18.25 30.5 18.25C31.6602 18.25 32.6094 19.1948 32.6094 20.3594V31.6094C32.6094 32.7739 31.6646 33.7188 30.5 33.7188C29.3354 33.7188 28.3906 32.7783 28.3906 31.6094V20.3594ZM30.5 42.1562C28.9742 42.1562 27.7367 40.9187 27.7367 39.393C27.7367 37.8672 28.9733 36.6297 30.5 36.6297C32.0267 36.6297 33.2633 37.8672 33.2633 39.393C33.2598 40.917 32.0293 42.1562 30.5 42.1562Z" fill="#E4B65D"/>
</svg>
